<mxfile host="Electron" modified="2023-12-02T13:33:57.835Z" agent="Mozilla/5.0 (X11; Linux x86_64) AppleWebKit/537.36 (KHTML, like Gecko) draw.io/22.1.2 Chrome/114.0.5735.289 Electron/25.9.4 Safari/537.36" etag="UXl86jJTi8yW62ZbUq6g" version="22.1.2" type="device">
  <diagram name="Page-1" id="JurFXoO8Ms-GU8dqoeIV">
    <mxGraphModel dx="1434" dy="838" grid="1" gridSize="12" guides="1" tooltips="1" connect="1" arrows="1" fold="1" page="1" pageScale="1" pageWidth="850" pageHeight="1100" math="0" shadow="0">
      <root>
        <mxCell id="0" />
        <mxCell id="1" parent="0" />
        <mxCell id="w0ZrYuRToutV4BRCBQfP-10" style="edgeStyle=orthogonalEdgeStyle;rounded=0;orthogonalLoop=1;jettySize=auto;html=1;exitX=1;exitY=0.5;exitDx=0;exitDy=0;exitPerimeter=0;" edge="1" parent="1" source="w0ZrYuRToutV4BRCBQfP-1">
          <mxGeometry relative="1" as="geometry">
            <mxPoint x="311" y="240" as="targetPoint" />
            <Array as="points">
              <mxPoint x="240" y="155" />
              <mxPoint x="240" y="240" />
            </Array>
          </mxGeometry>
        </mxCell>
        <mxCell id="w0ZrYuRToutV4BRCBQfP-1" value="Продажи через приложение озон" style="shape=cylinder3;whiteSpace=wrap;html=1;boundedLbl=1;backgroundOutline=1;size=15;" vertex="1" parent="1">
          <mxGeometry x="72" y="90" width="110" height="130" as="geometry" />
        </mxCell>
        <mxCell id="w0ZrYuRToutV4BRCBQfP-2" value="Склад озон" style="shape=cylinder3;whiteSpace=wrap;html=1;boundedLbl=1;backgroundOutline=1;size=15;" vertex="1" parent="1">
          <mxGeometry x="72" y="260" width="110" height="140" as="geometry" />
        </mxCell>
        <mxCell id="w0ZrYuRToutV4BRCBQfP-3" value="" style="endArrow=none;html=1;rounded=0;" edge="1" parent="1">
          <mxGeometry width="50" height="50" relative="1" as="geometry">
            <mxPoint x="216" y="496" as="sourcePoint" />
            <mxPoint x="216" y="36" as="targetPoint" />
          </mxGeometry>
        </mxCell>
        <mxCell id="w0ZrYuRToutV4BRCBQfP-4" value="&lt;font style=&quot;font-size: 24px;&quot;&gt;Source&lt;/font&gt;" style="text;html=1;align=center;verticalAlign=middle;resizable=0;points=[];autosize=1;strokeColor=none;fillColor=none;" vertex="1" parent="1">
          <mxGeometry x="77" y="15" width="100" height="40" as="geometry" />
        </mxCell>
        <mxCell id="w0ZrYuRToutV4BRCBQfP-7" value="" style="endArrow=none;html=1;rounded=0;" edge="1" parent="1">
          <mxGeometry width="50" height="50" relative="1" as="geometry">
            <mxPoint x="564" y="496" as="sourcePoint" />
            <mxPoint x="564" y="36" as="targetPoint" />
          </mxGeometry>
        </mxCell>
        <mxCell id="w0ZrYuRToutV4BRCBQfP-9" value="&lt;font style=&quot;font-size: 24px;&quot;&gt;Хранилище данных&lt;/font&gt;" style="shape=cylinder3;whiteSpace=wrap;html=1;boundedLbl=1;backgroundOutline=1;size=15;" vertex="1" parent="1">
          <mxGeometry x="312" y="132" width="180" height="216" as="geometry" />
        </mxCell>
        <mxCell id="w0ZrYuRToutV4BRCBQfP-13" style="edgeStyle=orthogonalEdgeStyle;rounded=0;orthogonalLoop=1;jettySize=auto;html=1;exitX=1;exitY=0.5;exitDx=0;exitDy=0;exitPerimeter=0;entryX=0;entryY=0.5;entryDx=0;entryDy=0;entryPerimeter=0;" edge="1" parent="1" source="w0ZrYuRToutV4BRCBQfP-2" target="w0ZrYuRToutV4BRCBQfP-9">
          <mxGeometry relative="1" as="geometry">
            <Array as="points">
              <mxPoint x="240" y="330" />
              <mxPoint x="240" y="240" />
            </Array>
          </mxGeometry>
        </mxCell>
        <mxCell id="w0ZrYuRToutV4BRCBQfP-14" value="Excel отчет" style="sketch=0;pointerEvents=1;shadow=0;dashed=0;html=1;strokeColor=none;fillColor=#505050;labelPosition=center;verticalLabelPosition=bottom;verticalAlign=top;outlineConnect=0;align=center;shape=mxgraph.office.services.excel_services;" vertex="1" parent="1">
          <mxGeometry x="636" y="197.75" width="84" height="84.5" as="geometry" />
        </mxCell>
        <mxCell id="w0ZrYuRToutV4BRCBQfP-15" style="edgeStyle=orthogonalEdgeStyle;rounded=0;orthogonalLoop=1;jettySize=auto;html=1;entryX=1;entryY=0.5;entryDx=0;entryDy=0;entryPerimeter=0;" edge="1" parent="1" source="w0ZrYuRToutV4BRCBQfP-14" target="w0ZrYuRToutV4BRCBQfP-9">
          <mxGeometry relative="1" as="geometry" />
        </mxCell>
        <mxCell id="w0ZrYuRToutV4BRCBQfP-16" value="&lt;span style=&quot;font-size: 24px;&quot;&gt;Storage&lt;/span&gt;" style="text;html=1;align=center;verticalAlign=middle;resizable=0;points=[];autosize=1;strokeColor=none;fillColor=none;" vertex="1" parent="1">
          <mxGeometry x="348" y="11" width="108" height="48" as="geometry" />
        </mxCell>
        <mxCell id="w0ZrYuRToutV4BRCBQfP-17" value="&lt;span style=&quot;font-size: 24px;&quot;&gt;Business&lt;br&gt;&lt;/span&gt;" style="text;html=1;align=center;verticalAlign=middle;resizable=0;points=[];autosize=1;strokeColor=none;fillColor=none;" vertex="1" parent="1">
          <mxGeometry x="642" y="15" width="120" height="48" as="geometry" />
        </mxCell>
      </root>
    </mxGraphModel>
  </diagram>
</mxfile>
